<?xml version="1.0" standalone="no"?>
<!DOCTYPE svg PUBLIC "-//W3C//DTD SVG 20010904//EN" "http://www.w3.org/TR/2001/REC-SVG-20010904/DTD/svg10.dtd">
<svg version="1.0" xmlns="http://www.w3.org/2000/svg" width="48" height="48" viewBox="0 0 192.000000 192.000000"
    preserveAspectRatio="xMidYMid meet">
    <style>
        svg {
            background-color: white;
        }
    </style>
    <g transform="translate(0.000000,192.000000) scale(0.100000,-0.100000)" fill="#5f4dee" stroke="none">
        <path d="M0 960 l0 -960 960 0 960 0 0 960 0 960 -960 0 -960 0 0 -960z m1773
574 c66 -22 117 -81 117 -134 0 -84 -66 -182 -195 -290 -376 -316 -1033 -563
-1420 -535 -116 9 -160 22 -201 61 -31 28 -34 37 -34 88 0 77 29 135 112 222
110 116 265 224 478 333 41 21 83 47 92 58 10 11 33 60 51 109 l33 89 182 0
c152 0 184 -3 192 -15 5 -8 25 -62 45 -120 60 -173 116 -325 123 -332 26 -27
277 206 307 285 24 63 13 105 -35 130 -31 17 -52 18 -192 12 -149 -5 -181 -1
-146 21 53 33 409 46 491 18z m-336 -770 c73 -198 133 -388 125 -396 -5 -5
-71 -7 -147 -6 l-138 3 -41 115 -41 115 -40 7 c-22 4 -100 7 -173 7 -155 1
-164 10 -52 51 95 34 240 96 360 155 52 25 98 44 104 42 5 -2 24 -43 43 -93z
m-687 -182 c0 -10 -15 -63 -33 -117 l-34 -100 -127 -3 c-148 -3 -149 -2 -120
86 30 89 43 98 174 125 146 31 140 30 140 9z" />
        <path d="M965 1263 c-16 -41 -135 -397 -135 -405 0 -4 30 -8 67 -8 53 0 80 6
135 31 63 30 67 34 61 58 -11 48 -105 326 -113 334 -4 5 -11 0 -15 -10z" />
        <path d="M555 1180 c-217 -136 -359 -274 -380 -370 -18 -81 58 -123 210 -116
50 2 98 7 107 11 18 7 31 39 131 320 72 203 81 235 69 235 -5 0 -67 -36 -137
-80z" />
    </g>
</svg>